<svg id="Group_482" data-name="Group 482" xmlns="http://www.w3.org/2000/svg" xmlns:xlink="http://www.w3.org/1999/xlink" width="126.742" height="143.001" viewBox="0 0 126.742 143.001">
  <defs>
    <clipPath id="clip-path">
      <rect id="Rectangle_529" data-name="Rectangle 529" width="126.742" height="143.001" fill="none"/>
    </clipPath>
  </defs>
  <g id="Group_481" data-name="Group 481" clip-path="url(#clip-path)">
    <path id="Path_352" data-name="Path 352" d="M85.4,113.237a19.4,19.4,0,0,1,4.647-9.1,21.747,21.747,0,0,1,2.057-1.932c1.821-1.453,2.621-1.493,4.16-2.827a12.467,12.467,0,0,0,2.23-2.525,11.53,11.53,0,0,0,1.76-4.488,10.9,10.9,0,0,0,.105-2.377,11.139,11.139,0,0,1,2.7,2.623,12.787,12.787,0,0,1,1.958,9.487,10.226,10.226,0,0,0,.347,2.6,9.941,9.941,0,0,0,.605,1.664,9.66,9.66,0,0,0,2.018,2.818,1.316,1.316,0,0,1,.288.621,1.23,1.23,0,0,1-.007.464,1.754,1.754,0,0,1-.993,1.028,3.073,3.073,0,0,1-1.027.346,4.143,4.143,0,0,0-.944,2.226c-.015.192,0,.216.018,1.3.018,1.031.028,1.55.015,1.719a3.918,3.918,0,0,1-.675,2.192,3.133,3.133,0,0,1-2.041,1.015c-1.821.247-2.677-1-4.968-.751-.231.025-.416.058-.529.081a14.7,14.7,0,0,0,6.168,3.052,15.038,15.038,0,0,0,6.761-.079c5.049-1.231,7.944-4.785,9.307-6.459a21.691,21.691,0,0,0,3.555-20.781,25.09,25.09,0,0,0-3.746-6.615c-5.448-6.718-17.181-11.067-28.621-9.241a34.283,34.283,0,0,0-18.509,9.493,34.906,34.906,0,0,0-9.864,20.3,33.96,33.96,0,0,0,1.27,13.877,34.15,34.15,0,0,0,35,24.046,34.186,34.186,0,0,0,21.609-9.842,33.247,33.247,0,0,0,7.494-11.936,24.75,24.75,0,0,1-13.27,10.723c-.795.26-10.947,3.4-20.01-2.393A19.175,19.175,0,0,1,85.4,113.237" transform="translate(-30.865 -39.296)" fill="#f3f3f3"/>
    <path id="Path_353" data-name="Path 353" d="M131.014,127.962a9.439,9.439,0,0,0,6.963.016,4.092,4.092,0,0,1-6.963-.016" transform="translate(-65.277 -63.756)" fill="#f3f3f3"/>
    <path id="Path_354" data-name="Path 354" d="M16.33,64.538l-2.343,3.6a2.123,2.123,0,0,1-1.343,1.017,2.17,2.17,0,0,1-1.641-.4L3.543,63.9l3.424-5.259.622.406q-.379.4-.717.814t-.7.9q-.368.49-.787,1.1t-.952,1.431l3.834,2.5,2.343-3.6.346.226-2.343,3.6,3.017,1.965a1.424,1.424,0,0,0,2.24-.413l2.118-3.252Z" transform="translate(-1.765 -29.216)" fill="#f3f3f3"/>
    <path id="Path_355" data-name="Path 355" d="M36.238,44.953l-.726.625-7.917-9.2.025-.022.75-.166a.452.452,0,0,1,.468.164l3.49,4.056.025-.022A3.965,3.965,0,0,1,33.406,36.8a2.207,2.207,0,0,1,1.669-.618,2.391,2.391,0,0,1,1.576.92l3.705,4.307-.726.625L35.936,37.74a1.948,1.948,0,0,0-1.151-.731,1.422,1.422,0,0,0-1.166.393,3.621,3.621,0,0,0-.914,3.445Z" transform="translate(-13.749 -18.024)" fill="#f3f3f3"/>
    <rect id="Rectangle_527" data-name="Rectangle 527" width="4.211" height="1.156" transform="matrix(0.904, -0.427, 0.427, 0.904, 33.954, 13.188)" fill="#f3f3f3"/>
    <path id="Path_356" data-name="Path 356" d="M104.4,8.965,107.977.026,108.14,0l1.723,10.93-.979.155-1.365-8.663-3.128,7.732-.164.026-5.339-6.3,1.35,8.564-.489.078L98.026,1.594l.163-.026Z" transform="translate(-48.841 0)" fill="#f3f3f3"/>
    <path id="Path_357" data-name="Path 357" d="M140.768,9.63l-.482-.719a4.007,4.007,0,0,1,1.475-.69,4.348,4.348,0,0,1,1.655-.082,2.7,2.7,0,0,1,1.773.9,2.221,2.221,0,0,1,.458,1.817l-.811,5.689-.032,0-.652-.46a.45.45,0,0,1-.185-.461l.116-.817-.033,0a3.975,3.975,0,0,1-3.22,1.176,2.228,2.228,0,0,1-1.4-.666,1.529,1.529,0,0,1-.373-1.3,2.138,2.138,0,0,1,.5-1.105,3.137,3.137,0,0,1,1.055-.792,4.829,4.829,0,0,1,1.478-.415,6.594,6.594,0,0,1,1.765.027l.654.093.186-1.308a1.973,1.973,0,0,0-.236-1.385,1.472,1.472,0,0,0-1.092-.656,3.028,3.028,0,0,0-2.6,1.164m3.383,4.7.313-2.191-.327-.047a5.36,5.36,0,0,0-1.474-.019,4.087,4.087,0,0,0-1.226.351,2.586,2.586,0,0,0-.879.659,1.784,1.784,0,0,0-.415.924,1.169,1.169,0,0,0,.2.9,1.144,1.144,0,0,0,.8.439,3.29,3.29,0,0,0,1.556-.154,4.354,4.354,0,0,0,1.459-.868" transform="translate(-69.275 -4.033)" fill="#f3f3f3"/>
    <path id="Path_358" data-name="Path 358" d="M176.04,19.834l-.262-.825a4,4,0,0,1,1.609-.253,4.332,4.332,0,0,1,1.612.382A2.7,2.7,0,0,1,180.45,20.5a2.224,2.224,0,0,1-.066,1.873l-2.363,5.239-.03-.013-.5-.623a.452.452,0,0,1-.049-.494l.339-.753-.03-.013a3.98,3.98,0,0,1-3.421.233,2.226,2.226,0,0,1-1.157-1.029,1.529,1.529,0,0,1,.005-1.356,2.133,2.133,0,0,1,.787-.922,3.131,3.131,0,0,1,1.234-.468,4.845,4.845,0,0,1,1.535.013,6.545,6.545,0,0,1,1.687.516l.6.271.543-1.2a1.975,1.975,0,0,0,.159-1.4,1.471,1.471,0,0,0-.866-.933,3.025,3.025,0,0,0-2.822.394m1.941,5.459.91-2.018-.3-.136a5.35,5.35,0,0,0-1.411-.427,4.1,4.1,0,0,0-1.275,0,2.6,2.6,0,0,0-1.027.388,1.788,1.788,0,0,0-.656.773,1.174,1.174,0,0,0-.063.923,1.151,1.151,0,0,0,.643.643,3.3,3.3,0,0,0,1.538.285,4.349,4.349,0,0,0,1.643-.427" transform="translate(-86.206 -9.343)" fill="#f3f3f3"/>
    <path id="Path_359" data-name="Path 359" d="M210.568,40.962l-4.977,5.8a4.532,4.532,0,0,1-2.736,1.744,3.5,3.5,0,0,1-2.782-.993,5.928,5.928,0,0,1-1.269-1.59l.293-.163a7.472,7.472,0,0,0,.492.694,4.26,4.26,0,0,0,.54.561,2.791,2.791,0,0,0,2.289.756,3.8,3.8,0,0,0,2.273-1.434l1.247-1.454-.025-.022a3.964,3.964,0,0,1-3.7-.5,2.2,2.2,0,0,1-.863-1.555,2.389,2.389,0,0,1,.672-1.7l3.7-4.313.727.624-3.687,4.3a1.943,1.943,0,0,0-.548,1.248,1.418,1.418,0,0,0,.564,1.093,3.622,3.622,0,0,0,3.543.384l3.526-4.112Z" transform="translate(-99.052 -18.336)" fill="#f3f3f3"/>
    <path id="Path_360" data-name="Path 360" d="M231.646,67.033l.216-.838a4.012,4.012,0,0,1,1.5.641,4.349,4.349,0,0,1,1.162,1.181,2.694,2.694,0,0,1,.507,1.925,2.226,2.226,0,0,1-1.051,1.551l-4.786,3.183-.018-.028-.09-.793a.45.45,0,0,1,.22-.444l.687-.457-.019-.028a3.976,3.976,0,0,1-3.021-1.621,2.229,2.229,0,0,1-.434-1.486,1.531,1.531,0,0,1,.726-1.147,2.142,2.142,0,0,1,1.157-.363,3.142,3.142,0,0,1,1.294.26,4.8,4.8,0,0,1,1.293.826,6.582,6.582,0,0,1,1.156,1.334l.366.55,1.1-.732a1.971,1.971,0,0,0,.876-1.1,1.472,1.472,0,0,0-.237-1.251,3.028,3.028,0,0,0-2.6-1.166m-1.257,5.655,1.843-1.225-.183-.275a5.336,5.336,0,0,0-.968-1.112A4.073,4.073,0,0,0,230,69.4a2.593,2.593,0,0,0-1.076-.217,1.8,1.8,0,0,0-.967.306,1.174,1.174,0,0,0-.544.748,1.152,1.152,0,0,0,.2.887,3.3,3.3,0,0,0,1.151,1.059,4.344,4.344,0,0,0,1.619.511" transform="translate(-112.855 -32.981)" fill="#f3f3f3"/>
    <path id="Path_361" data-name="Path 361" d="M228.356,218.148l-.859.109a4.009,4.009,0,0,1,.041-1.628,4.343,4.343,0,0,1,.667-1.517,2.7,2.7,0,0,1,1.6-1.183,2.228,2.228,0,0,1,1.83.4l4.728,3.268-.019.027-.7.378a.451.451,0,0,1-.494-.04l-.679-.47-.019.027a3.978,3.978,0,0,1-.386,3.406,2.231,2.231,0,0,1-1.221.953,1.528,1.528,0,0,1-1.333-.249,2.141,2.141,0,0,1-.767-.941,3.135,3.135,0,0,1-.236-1.3,4.836,4.836,0,0,1,.288-1.507,6.563,6.563,0,0,1,.812-1.567l.376-.543-1.087-.751a1.973,1.973,0,0,0-1.345-.407,1.47,1.47,0,0,0-1.074.682,3.03,3.03,0,0,0-.12,2.848m5.719-.926-1.821-1.258-.188.271a5.342,5.342,0,0,0-.674,1.311,4.1,4.1,0,0,0-.234,1.254,2.612,2.612,0,0,0,.2,1.08,1.793,1.793,0,0,0,.642.784,1.173,1.173,0,0,0,.9.228,1.152,1.152,0,0,0,.748-.517,3.312,3.312,0,0,0,.558-1.461,4.373,4.373,0,0,0-.125-1.692" transform="translate(-113.317 -106.561)" fill="#f3f3f3"/>
    <path id="Path_362" data-name="Path 362" d="M204,239.005l4.83,5.928a4.535,4.535,0,0,1,1.231,3,3.5,3.5,0,0,1-1.471,2.561,5.9,5.9,0,0,1-1.789.968l-.109-.316a7.386,7.386,0,0,0,.77-.362,4.146,4.146,0,0,0,.649-.433,2.784,2.784,0,0,0,1.15-2.119,3.8,3.8,0,0,0-1.007-2.491l-1.21-1.485-.025.021a3.967,3.967,0,0,1-1.15,3.557,2.2,2.2,0,0,1-1.684.573,2.387,2.387,0,0,1-1.551-.962l-3.588-4.4.743-.605,3.578,4.391a1.946,1.946,0,0,0,1.131.761,1.419,1.419,0,0,0,1.176-.361,3.62,3.62,0,0,0,1.007-3.419l-3.421-4.2Z" transform="translate(-99.171 -119.083)" fill="#f3f3f3"/>
    <path id="Path_363" data-name="Path 363" d="M170.517,262.634l-.788-.357a4,4,0,0,1,.888-1.365,4.348,4.348,0,0,1,1.362-.943,2.7,2.7,0,0,1,1.983-.168,2.226,2.226,0,0,1,1.349,1.3l2.314,5.26-.03.014-.8-.046a.451.451,0,0,1-.4-.294l-.332-.756-.031.013a3.977,3.977,0,0,1-2.115,2.7,2.228,2.228,0,0,1-1.539.172,1.53,1.53,0,0,1-1.005-.91,2.146,2.146,0,0,1-.159-1.2,3.138,3.138,0,0,1,.479-1.229,4.839,4.839,0,0,1,1.035-1.132,6.594,6.594,0,0,1,1.513-.908l.6-.266-.532-1.209a1.974,1.974,0,0,0-.931-1.052,1.474,1.474,0,0,0-1.273.019,3.029,3.029,0,0,0-1.6,2.362m5.356,2.209-.891-2.026-.3.133a5.331,5.331,0,0,0-1.262.762,4.1,4.1,0,0,0-.856.945,2.622,2.622,0,0,0-.4,1.023,1.8,1.8,0,0,0,.135,1.005,1.172,1.172,0,0,0,.644.664,1.147,1.147,0,0,0,.909-.048,3.282,3.282,0,0,0,1.241-.951,4.348,4.348,0,0,0,.781-1.507" transform="translate(-84.566 -129.385)" fill="#f3f3f3"/>
    <path id="Path_364" data-name="Path 364" d="M139.085,270.624l-.656-.564a4.007,4.007,0,0,1,1.236-1.06,4.349,4.349,0,0,1,1.573-.522,2.7,2.7,0,0,1,1.95.4,2.229,2.229,0,0,1,.928,1.628l.741,5.7-.033,0-.751-.268a.451.451,0,0,1-.3-.394l-.106-.818-.033,0a3.98,3.98,0,0,1-2.789,1.994,2.229,2.229,0,0,1-1.525-.268,1.53,1.53,0,0,1-.708-1.157,2.142,2.142,0,0,1,.185-1.2,3.151,3.151,0,0,1,.8-1.045,4.845,4.845,0,0,1,1.313-.8,6.607,6.607,0,0,1,1.707-.446l.655-.085-.171-1.311a1.972,1.972,0,0,0-.6-1.271,1.471,1.471,0,0,0-1.226-.34,3.031,3.031,0,0,0-2.2,1.817m4.519,3.627-.285-2.2-.328.043a5.359,5.359,0,0,0-1.425.377,4.113,4.113,0,0,0-1.087.666,2.61,2.61,0,0,0-.669.87,1.789,1.789,0,0,0-.153,1,1.174,1.174,0,0,0,.431.818,1.148,1.148,0,0,0,.885.209,3.291,3.291,0,0,0,1.459-.564,4.355,4.355,0,0,0,1.173-1.227" transform="translate(-68.971 -133.752)" fill="#f3f3f3"/>
    <path id="Path_365" data-name="Path 365" d="M91.647,268.249l6.241-7.33.163.028-1.858,10.908-.977-.167,1.473-8.645-5.434,6.329-.163-.027-3.049-7.673-1.456,8.547-.489-.083,1.858-10.908.163.028Z" transform="translate(-42.898 -129.159)" fill="#f3f3f3"/>
    <rect id="Rectangle_528" data-name="Rectangle 528" width="1.156" height="4.211" transform="translate(32.076 132.613) rotate(-64.152)" fill="#f3f3f3"/>
    <path id="Path_366" data-name="Path 366" d="M26.345,235.483l-.71-.643,8.148-9,.025.022.258.724a.452.452,0,0,1-.1.485L30.37,231.04l.024.022a3.962,3.962,0,0,1,3.689.6,2.206,2.206,0,0,1,.821,1.579,2.393,2.393,0,0,1-.718,1.679l-3.814,4.211-.71-.644,3.8-4.2a1.945,1.945,0,0,0,.583-1.233,1.419,1.419,0,0,0-.534-1.107,3.622,3.622,0,0,0-3.531-.48Z" transform="translate(-12.772 -112.525)" fill="#f3f3f3"/>
    <path id="Path_367" data-name="Path 367" d="M6.38,212.036,4.1,208.4a2.126,2.126,0,0,1-.359-1.646A2.173,2.173,0,0,1,4.8,205.429L12.34,200.7l3.331,5.319-.63.394q-.205-.514-.437-.993t-.521-1.019q-.29-.54-.67-1.179t-.9-1.465l-3.878,2.429,2.279,3.639-.35.219L8.289,204.41l-3.051,1.911a1.424,1.424,0,0,0-.567,2.207l2.059,3.289Z" transform="translate(-1.841 -100)" fill="#f3f3f3"/>
    <path id="Path_368" data-name="Path 368" d="M4.253,140.4a2.127,2.127,0,1,1-2.126-2.126A2.126,2.126,0,0,1,4.253,140.4" transform="translate(0 -68.892)" fill="#f3f3f3"/>
    <path id="Path_369" data-name="Path 369" d="M248.372,140.4a2.127,2.127,0,1,1-2.127-2.126,2.127,2.127,0,0,1,2.127,2.126" transform="translate(-121.631 -68.892)" fill="#f3f3f3"/>
  </g>
</svg>
