<svg id="Group_480" data-name="Group 480" xmlns="http://www.w3.org/2000/svg" xmlns:xlink="http://www.w3.org/1999/xlink" width="95.999" height="89.518" viewBox="0 0 95.999 89.518">
  <defs>
    <clipPath id="clip-path">
      <rect id="Rectangle_523" data-name="Rectangle 523" width="95.999" height="89.518" fill="#0f0f32"/>
    </clipPath>
  </defs>
  <g id="Group_472" data-name="Group 472" clip-path="url(#clip-path)">
    <path id="Path_332" data-name="Path 332" d="M9.4,181.071H3.132a3.1,3.1,0,0,1-2.313-.831A3.169,3.169,0,0,1,0,177.915V164.93H9.154v1.084q-.8-.145-1.566-.229t-1.662-.145q-.891-.06-1.975-.084t-2.505-.024v6.673H7.709v.6H1.446v5.252q0,2.409,2.289,2.409H9.4Z" transform="translate(0 -97.215)" fill="#0f0f32"/>
    <path id="Path_333" data-name="Path 333" d="M31.909,178.823h-1.4V161.117h.048l.988.53a.657.657,0,0,1,.361.626v7.805h.048q2.1-2.963,4.577-2.963a3.212,3.212,0,0,1,2.433.9,3.486,3.486,0,0,1,.867,2.517v8.287h-1.4v-8.263a2.838,2.838,0,0,0-.578-1.9,2.071,2.071,0,0,0-1.662-.675q-2.385,0-4.288,2.939Z" transform="translate(-17.985 -94.967)" fill="#0f0f32"/>
    <rect id="Rectangle_522" data-name="Rectangle 522" width="5.829" height="0.867" transform="translate(24.259 75.088)" fill="#0f0f32"/>
    <path id="Path_334" data-name="Path 334" d="M87.842,177l7.179-12.07h.241v16.141H93.817V168.279L87.553,178.71h-.241l-6.264-10.287v12.648h-.723V164.93h.241Z" transform="translate(-47.346 -97.215)" fill="#0f0f32"/>
    <path id="Path_335" data-name="Path 335" d="M126.191,178.425l-.843-.939a5.848,5.848,0,0,1,1.987-1.3,6.343,6.343,0,0,1,2.374-.458,3.931,3.931,0,0,1,2.746.94,3.246,3.246,0,0,1,1.036,2.53v8.383h-.048l-1.036-.53a.657.657,0,0,1-.361-.627v-1.2H132a5.8,5.8,0,0,1-4.408,2.361,3.252,3.252,0,0,1-2.156-.675,2.233,2.233,0,0,1-.807-1.807,3.121,3.121,0,0,1,.494-1.7,4.575,4.575,0,0,1,1.361-1.361,7.043,7.043,0,0,1,2.048-.9,9.585,9.585,0,0,1,2.553-.325h.964v-1.927a2.877,2.877,0,0,0-.627-1.951,2.146,2.146,0,0,0-1.71-.723,4.419,4.419,0,0,0-3.518,2.216m5.854,6.095v-3.228h-.482a7.8,7.8,0,0,0-2.132.277,5.99,5.99,0,0,0-1.7.759,3.8,3.8,0,0,0-1.132,1.132,2.614,2.614,0,0,0-.41,1.421,1.71,1.71,0,0,0,.47,1.265,1.675,1.675,0,0,0,1.24.469,4.8,4.8,0,0,0,2.217-.542,6.354,6.354,0,0,0,1.927-1.554" transform="translate(-73.458 -103.579)" fill="#0f0f32"/>
    <path id="Path_336" data-name="Path 336" d="M154.531,178.425l-.843-.939a5.848,5.848,0,0,1,1.987-1.3,6.344,6.344,0,0,1,2.374-.458,3.931,3.931,0,0,1,2.746.94,3.246,3.246,0,0,1,1.036,2.53v8.383h-.048l-1.036-.53a.657.657,0,0,1-.361-.627v-1.2h-.048a5.8,5.8,0,0,1-4.408,2.361,3.252,3.252,0,0,1-2.156-.675,2.233,2.233,0,0,1-.807-1.807,3.121,3.121,0,0,1,.494-1.7,4.575,4.575,0,0,1,1.361-1.361,7.043,7.043,0,0,1,2.048-.9,9.586,9.586,0,0,1,2.553-.325h.964v-1.927a2.877,2.877,0,0,0-.627-1.951,2.145,2.145,0,0,0-1.71-.723,4.419,4.419,0,0,0-3.518,2.216m5.854,6.095v-3.228H159.9a7.8,7.8,0,0,0-2.132.277,5.988,5.988,0,0,0-1.7.759,3.8,3.8,0,0,0-1.132,1.132,2.614,2.614,0,0,0-.41,1.421,1.71,1.71,0,0,0,.47,1.265,1.675,1.675,0,0,0,1.24.469,4.8,4.8,0,0,0,2.217-.542,6.354,6.354,0,0,0,1.927-1.554" transform="translate(-90.162 -103.579)" fill="#0f0f32"/>
    <path id="Path_337" data-name="Path 337" d="M192.094,176.079v11.154a6.61,6.61,0,0,1-1.373,4.529A5.108,5.108,0,0,1,186.7,193.3a8.635,8.635,0,0,1-2.915-.554l.169-.458a10.982,10.982,0,0,0,1.2.3,6.129,6.129,0,0,0,1.132.108,4.068,4.068,0,0,0,3.252-1.337,5.545,5.545,0,0,0,1.157-3.746v-2.794h-.049q-2.1,2.963-4.577,2.963a3.215,3.215,0,0,1-2.433-.9,3.486,3.486,0,0,1-.867-2.517v-8.287h1.4v8.263a2.836,2.836,0,0,0,.578,1.9,2.069,2.069,0,0,0,1.662.675q2.385,0,4.288-2.939v-7.9Z" transform="translate(-107.731 -103.786)" fill="#0f0f32"/>
    <path id="Path_338" data-name="Path 338" d="M213.792,178.425l-.843-.939a5.848,5.848,0,0,1,1.987-1.3,6.344,6.344,0,0,1,2.374-.458,3.931,3.931,0,0,1,2.746.94,3.246,3.246,0,0,1,1.036,2.53v8.383h-.048l-1.036-.53a.657.657,0,0,1-.361-.627v-1.2H219.6a5.8,5.8,0,0,1-4.408,2.361,3.252,3.252,0,0,1-2.156-.675,2.233,2.233,0,0,1-.807-1.807,3.122,3.122,0,0,1,.494-1.7,4.576,4.576,0,0,1,1.361-1.361,7.043,7.043,0,0,1,2.048-.9,9.586,9.586,0,0,1,2.553-.325h.964v-1.927a2.877,2.877,0,0,0-.627-1.951,2.145,2.145,0,0,0-1.71-.723,4.419,4.419,0,0,0-3.518,2.216m5.854,6.095v-3.228h-.482a7.794,7.794,0,0,0-2.132.277,5.99,5.99,0,0,0-1.7.759,3.8,3.8,0,0,0-1.132,1.132,2.614,2.614,0,0,0-.41,1.421,1.71,1.71,0,0,0,.47,1.265,1.675,1.675,0,0,0,1.24.469,4.8,4.8,0,0,0,2.217-.542,6.354,6.354,0,0,0,1.927-1.554" transform="translate(-125.092 -103.579)" fill="#0f0f32"/>
    <path id="Path_339" data-name="Path 339" d="M70.135,28.126a15.879,15.879,0,0,1,3.8-7.449A17.766,17.766,0,0,1,75.621,19.1c1.49-1.189,2.144-1.222,3.4-2.314a10.234,10.234,0,0,0,1.825-2.066,9.438,9.438,0,0,0,1.44-3.673A8.925,8.925,0,0,0,82.377,9.1a9.123,9.123,0,0,1,2.207,2.146,10.467,10.467,0,0,1,1.6,7.764,8.371,8.371,0,0,0,.284,2.126,8.187,8.187,0,0,0,.495,1.361A7.91,7.91,0,0,0,88.617,24.8a1.077,1.077,0,0,1,.236.508,1.008,1.008,0,0,1-.005.38,1.436,1.436,0,0,1-.813.841,2.534,2.534,0,0,1-.84.283,3.392,3.392,0,0,0-.773,1.822c-.012.157,0,.176.015,1.061.014.844.023,1.269.011,1.406a3.206,3.206,0,0,1-.552,1.794,2.565,2.565,0,0,1-1.67.83c-1.49.2-2.192-.816-4.066-.615-.189.02-.341.048-.433.066a12.036,12.036,0,0,0,5.048,2.5,12.315,12.315,0,0,0,5.533-.064,14.129,14.129,0,0,0,7.617-5.286,17.752,17.752,0,0,0,2.909-17.007A20.543,20.543,0,0,0,97.766,7.9C93.308,2.406,83.705-1.153,74.343.342A28.054,28.054,0,0,0,59.2,8.111a28.567,28.567,0,0,0-8.072,16.615,27.8,27.8,0,0,0,1.04,11.356A27.948,27.948,0,0,0,80.81,55.761a27.976,27.976,0,0,0,17.685-8.055,27.216,27.216,0,0,0,6.133-9.769,20.257,20.257,0,0,1-10.86,8.775c-.651.213-8.959,2.78-16.376-1.958a15.691,15.691,0,0,1-7.256-16.629" transform="translate(-30.024 0)" fill="#0f0f32"/>
    <path id="Path_340" data-name="Path 340" d="M120.014,49.1a7.72,7.72,0,0,0,5.7.013,3.349,3.349,0,0,1-5.7-.013" transform="translate(-70.74 -28.94)" fill="#0f0f32"/>
  </g>
</svg>
