<svg xmlns="http://www.w3.org/2000/svg" width="19.503" height="21.273" viewBox="0 0 19.503 21.273">
  <path id="Path_26" data-name="Path 26" d="M15.927,10.615V6.052a3.8,3.8,0,1,0-7.6,0v4.563M19.837,8.595l1.281,12.168a1.14,1.14,0,0,1-1.135,1.26H4.266a1.141,1.141,0,0,1-1.136-1.26L4.412,8.595A1.141,1.141,0,0,1,5.546,7.573H18.7A1.141,1.141,0,0,1,19.837,8.595ZM8.7,10.615a.38.38,0,1,1-.38-.38A.38.38,0,0,1,8.7,10.615Zm7.6,0a.38.38,0,1,1-.38-.38A.38.38,0,0,1,16.307,10.615Z" transform="translate(-2.372 -1.5)" fill="none" stroke="#0f0f32" stroke-linecap="round" stroke-linejoin="round" stroke-width="1.5"/>
</svg>
