<svg xmlns="http://www.w3.org/2000/svg" width="18" height="16.615" viewBox="0 0 18 16.615">
  <path id="Path_48" data-name="Path 48" d="M10.922,19.532l-.006,0-.02-.011q-.178-.1-.354-.2a23.243,23.243,0,0,1-3.918-2.926C4.5,14.409,2.25,11.468,2.25,7.846A4.935,4.935,0,0,1,7.27,3a5.077,5.077,0,0,1,3.98,1.894A5.077,5.077,0,0,1,15.231,3,4.935,4.935,0,0,1,20.25,7.846c0,3.623-2.25,6.564-4.374,8.544a23.238,23.238,0,0,1-3.918,2.926q-.175.1-.354.2l-.02.011-.006,0h0a.694.694,0,0,1-.65,0h0Z" transform="translate(-2.25 -3)" fill="red"/>
</svg>
