<svg xmlns="http://www.w3.org/2000/svg" width="19.527" height="18.697" viewBox="0 0 19.527 18.697">
  <path id="Path_32" data-name="Path 32" d="M11.333,3.493a.552.552,0,0,1,1.022,0l2.089,5.024a.553.553,0,0,0,.467.339l5.424.434a.553.553,0,0,1,.316.971L16.518,13.8a.553.553,0,0,0-.179.548L17.6,19.644a.552.552,0,0,1-.826.6l-4.645-2.836a.553.553,0,0,0-.576,0L6.912,20.244a.552.552,0,0,1-.826-.6L7.349,14.35A.552.552,0,0,0,7.17,13.8L3.038,10.262a.553.553,0,0,1,.316-.971l5.424-.434a.553.553,0,0,0,.467-.339l2.089-5.023Z" transform="translate(-2.081 -2.4)" fill="none" stroke="#0f0f32" stroke-linecap="round" stroke-linejoin="round" stroke-width="1.5"/>
</svg>
