<svg id="Group_477" data-name="Group 477" xmlns="http://www.w3.org/2000/svg" xmlns:xlink="http://www.w3.org/1999/xlink" width="57.5" height="59.793" viewBox="0 0 57.5 59.793">
  <defs>
    <clipPath id="clip-path">
      <rect id="Rectangle_526" data-name="Rectangle 526" width="57.5" height="59.793" fill="none"/>
    </clipPath>
  </defs>
  <g id="Group_476" data-name="Group 476" clip-path="url(#clip-path)">
    <path id="Path_350" data-name="Path 350" d="M20.559,30.123a17,17,0,0,1,4.073-7.977,19.094,19.094,0,0,1,1.8-1.693c1.6-1.274,2.3-1.309,3.646-2.478a10.934,10.934,0,0,0,1.955-2.213,10.107,10.107,0,0,0,1.542-3.933,9.567,9.567,0,0,0,.093-2.084,9.763,9.763,0,0,1,2.363,2.3,11.209,11.209,0,0,1,1.716,8.315,8.96,8.96,0,0,0,.3,2.276,8.748,8.748,0,0,0,.53,1.458,8.474,8.474,0,0,0,1.769,2.47,1.153,1.153,0,0,1,.252.544,1.082,1.082,0,0,1-.006.407,1.538,1.538,0,0,1-.87.9,2.7,2.7,0,0,1-.9.3A3.635,3.635,0,0,0,38,30.667c-.013.168,0,.189.016,1.136.015.9.024,1.359.012,1.506a3.436,3.436,0,0,1-.592,1.921,2.747,2.747,0,0,1-1.789.889c-1.6.217-2.347-.874-4.355-.658-.2.022-.365.051-.464.071a12.886,12.886,0,0,0,5.406,2.675,13.191,13.191,0,0,0,5.926-.069,15.131,15.131,0,0,0,8.157-5.661,19.01,19.01,0,0,0,3.116-18.214,22,22,0,0,0-3.283-5.8c-4.774-5.888-15.059-9.7-25.085-8.1A30.048,30.048,0,0,0,8.844,8.688,30.593,30.593,0,0,0,.2,26.482,29.772,29.772,0,0,0,1.312,38.644,30.446,30.446,0,0,0,12.092,53.9a30.283,30.283,0,0,0,19.9,5.821,29.964,29.964,0,0,0,18.939-8.626A29.145,29.145,0,0,0,57.5,40.631a21.694,21.694,0,0,1-11.631,9.4c-.7.228-9.595,2.978-17.538-2.1a16.805,16.805,0,0,1-7.771-17.809" transform="translate(0 0)" fill="#0f0f32"/>
    <path id="Path_351" data-name="Path 351" d="M141.343,100.468a8.27,8.27,0,0,0,6.1.014,3.587,3.587,0,0,1-6.1-.014" transform="translate(-110.97 -78.878)" fill="#0f0f32"/>
  </g>
</svg>
