<svg xmlns="http://www.w3.org/2000/svg" width="18" height="22.402" viewBox="0 0 18 22.402">
  <g id="Path_60" data-name="Path 60" transform="translate(-4.501 -3.25)" fill="none" stroke-linecap="round" stroke-linejoin="round">
    <path d="M18,7.75a4.5,4.5,0,1,1-4.5-4.5A4.5,4.5,0,0,1,18,7.75ZM4.5,23.693a9,9,0,1,1,18,0,21.658,21.658,0,0,1-18,0Z" stroke="none"/>
    <path d="M 13.50038146972656 4.750005722045898 C 11.84602165222168 4.750005722045898 10.50010108947754 6.095924377441406 10.50010108947754 7.750295639038086 C 10.50010108947754 9.404664993286133 11.84603118896484 10.75059509277344 13.50040149688721 10.75059509277344 C 15.15477180480957 10.75059509277344 16.50070190429688 9.404674530029297 16.50070190429688 7.75030517578125 C 16.50070190429688 6.095935821533203 15.15476131439209 4.750005722045898 13.50038146972656 4.750005722045898 M 13.50040149688721 16.19242477416992 C 11.49688148498535 16.19242477416992 9.613391876220703 16.97260665893555 8.196870803833008 18.38924407958984 C 7.009645462036133 19.57658767700195 6.269657135009766 21.09186935424805 6.061491012573242 22.73077964782715 C 8.422964096069336 23.67405700683594 10.92078399658203 24.15155410766602 13.50272178649902 24.15155410766602 L 13.53082180023193 24.15157508850098 C 16.09066772460938 24.15157508850098 18.57821273803711 23.67409324645996 20.93958854675293 22.73092842102051 C 20.46594429016113 19.04775428771973 17.31035232543945 16.19242477416992 13.50040149688721 16.19242477416992 M 13.5003833770752 3.250005722045898 C 13.5005350112915 3.250005722045898 13.5002498626709 3.250005722045898 13.50040149688721 3.250005722045898 C 15.9858512878418 3.250005722045898 18.00070190429688 5.264854431152344 18.00070190429688 7.75030517578125 C 18.00070190429688 10.23574447631836 15.9858512878418 12.25059509277344 13.50040149688721 12.25059509277344 C 11.01495170593262 12.25059509277344 9.000101089477539 10.23574447631836 9.000101089477539 7.750295639038086 C 9.000101089477539 5.265007019042969 11.0151424407959 3.250005722045898 13.5003833770752 3.250005722045898 Z M 18.00070190429688 7.750295639038086 L 18.00070190429688 7.75030517578125 C 18.00070190429688 7.750295639038086 18.00070190429688 7.750295639038086 18.00070190429688 7.750295639038086 Z M 13.50040149688721 14.69242572784424 C 18.47129058837891 14.69242572784424 22.50100135803223 18.72213554382324 22.50100135803223 23.69302558898926 C 19.67731094360352 24.98780632019043 16.60672378540039 25.65597343444824 13.50040149688721 25.65155601501465 C 10.28898239135742 25.65155601501465 7.240781784057617 24.95070457458496 4.501001358032227 23.69302558898926 C 4.499801635742188 18.72212600708008 8.529512405395508 14.69242572784424 13.50040149688721 14.69242572784424 Z" stroke="none" fill="#0f0f32"/>
  </g>
</svg>
