<svg xmlns="http://www.w3.org/2000/svg" width="18" height="19.636" viewBox="0 0 18 19.636">
  <path id="Path_31" data-name="Path 31" d="M7.167,5.708v.7H5.309a1.753,1.753,0,0,0-1.744,1.57L2.384,19.2a1.753,1.753,0,0,0,1.744,1.936H18.621A1.753,1.753,0,0,0,20.365,19.2L19.184,7.979a1.753,1.753,0,0,0-1.744-1.57H15.582v-.7a4.208,4.208,0,1,0-8.415,0ZM11.375,2.9A2.805,2.805,0,0,0,8.57,5.708v.7h5.61v-.7A2.805,2.805,0,0,0,11.375,2.9ZM8.57,10.617a2.805,2.805,0,0,0,5.61,0v-.7a.7.7,0,0,1,1.4,0v.7a4.208,4.208,0,1,1-8.415,0v-.7a.7.7,0,0,1,1.4,0Z" transform="translate(-2.375 -1.5)" fill="#0f0f32" fill-rule="evenodd"/>
</svg>
